<svg width="20" height="20" viewBox="0 0 20 20" fill="none" xmlns="http://www.w3.org/2000/svg">
<path d="M13.3334 8.3343C13.3334 10.174 11.8398 11.6676 10.0001 11.6676C8.16039 11.6676 6.66677 10.174 6.66677 8.3343M2.58594 5.0293H17.4143" stroke="#111111" stroke-width="1.66667" stroke-linecap="round" stroke-linejoin="round"/>
<path d="M2.83333 4.55518C2.61696 4.84368 2.5 5.19457 2.5 5.55518V16.666C2.5 17.5865 3.24619 18.3327 4.16667 18.3327H15.8333C16.7538 18.3327 17.5 17.5865 17.5 16.666V5.55518C17.5 5.19457 17.383 4.84368 17.1667 4.55518L15.5 2.33268C15.1852 1.91301 14.6913 1.66602 14.1667 1.66602H5.83333C5.30874 1.66602 4.81476 1.91301 4.5 2.33268L2.83333 4.55518" stroke="#111111" stroke-width="1.66667" stroke-linecap="round" stroke-linejoin="round"/>
</svg>
