<svg width="16" height="16" viewBox="0 0 16 16" fill="none" xmlns="http://www.w3.org/2000/svg">
<g clip-path="url(#clip0_2056_93)">
<path d="M1.3335 6.33384C1.33352 4.81514 2.26979 3.45364 3.6879 2.91011C5.10601 2.36658 6.71242 2.75354 7.7275 3.88318C7.79809 3.95866 7.89681 4.0015 8.00016 4.0015C8.10351 4.0015 8.20224 3.95866 8.27283 3.88318C9.28491 2.74598 10.8952 2.354 12.3167 2.89883C13.7383 3.44366 14.6741 4.81152 14.6668 6.33384C14.6668 7.86051 13.6668 9.00051 12.6668 10.0005L9.0055 13.5425C8.75421 13.8311 8.39103 13.9978 8.00836 14.0003C7.62568 14.0027 7.26042 13.8406 7.0055 13.5552L3.3335 10.0005C2.3335 9.00051 1.3335 7.86718 1.3335 6.33384" stroke="#111111" stroke-width="1.33333" stroke-linecap="round" stroke-linejoin="round"/>
</g>
<defs>
<clipPath id="clip0_2056_93">
<rect width="16" height="16" fill="white"/>
</clipPath>
</defs>
</svg>
