<svg width="20" height="20" viewBox="0 0 20 20" fill="none" xmlns="http://www.w3.org/2000/svg">
<path d="M5.83317 1.66602H14.1665C16.4661 1.66602 18.3332 3.53304 18.3332 5.83268V14.166C18.3332 16.4657 16.4661 18.3327 14.1665 18.3327H5.83317C3.53352 18.3327 1.6665 16.4657 1.6665 14.166V5.83268C1.6665 3.53304 3.53352 1.66602 5.83317 1.66602V1.66602" stroke="#111111" stroke-width="1.66667" stroke-linecap="round" stroke-linejoin="round"/>
<path d="M13.3333 9.47435C13.5443 10.8968 12.8192 12.2942 11.5347 12.9407C10.2502 13.5873 8.69588 13.3372 7.67904 12.3203C6.6622 11.3035 6.41209 9.74916 7.05861 8.46466C7.70514 7.18016 9.10253 6.45508 10.525 6.66602C11.9775 6.8814 13.118 8.02187 13.3333 9.47435M14.5833 5.41602H14.5917" stroke="#111111" stroke-width="1.66667" stroke-linecap="round" stroke-linejoin="round"/>
</svg>
