<svg width="24" height="24" viewBox="0 0 24 24" fill="none" xmlns="http://www.w3.org/2000/svg">
<path d="M4 6H20C21.1038 6 22 6.89617 22 8V16C22 17.1038 21.1038 18 20 18H4C2.89617 18 2 17.1038 2 16V8C2 6.89617 2.89617 6 4 6V6" stroke="#111111" stroke-width="2" stroke-linecap="round" stroke-linejoin="round"/>
<path d="M10 12C10 13.1038 10.8962 14 12 14C13.1038 14 14 13.1038 14 12C14 10.8962 13.1038 10 12 10C10.8962 10 10 10.8962 10 12V12" stroke="#111111" stroke-width="2" stroke-linecap="round" stroke-linejoin="round"/>
<path d="M6 12H6.01M18 12H18.01" stroke="#111111" stroke-width="2" stroke-linecap="round" stroke-linejoin="round"/>
</svg>
